<?xml version="1.0" encoding="utf-8"?>
<!-- Generator: Adobe Illustrator 16.0.0, SVG Export Plug-In . SVG Version: 6.00 Build 0)  -->
<!DOCTYPE svg PUBLIC "-//W3C//DTD SVG 1.1//EN" "http://www.w3.org/Graphics/SVG/1.1/DTD/svg11.dtd">
<svg version="1.1" id="Layer_1" xmlns="http://www.w3.org/2000/svg" xmlns:xlink="http://www.w3.org/1999/xlink" x="0px" y="0px"
	 width="216.72px" height="217px" viewBox="0 0 216.72 217" enable-background="new 0 0 216.72 217" xml:space="preserve">
<polygon fill="#FFFFFF" points="207.589,143.759 205.259,135.066 179.179,142.054 176.721,142.712 156.895,131.267 194.169,121.279 
	191.84,112.585 148.373,124.232 145.873,124.902 117.463,108.5 145.865,92.103 148.327,92.761 191.794,104.409 194.124,95.716 
	156.887,85.737 176.659,74.323 179.164,74.993 205.245,81.981 207.573,73.288 187.683,67.958 204.173,58.438 199.673,50.644 
	183.13,60.194 188.481,40.221 179.789,37.891 172.8,63.972 172.106,66.56 152.281,78.005 162.304,40.603 153.61,38.272 
	141.964,81.739 141.259,84.368 112.82,100.788 112.82,67.886 114.718,65.988 146.538,34.169 140.174,27.805 112.82,55.158 
	112.82,32.327 114.749,30.399 133.841,11.307 127.477,4.942 112.82,19.599 112.82,0.5 103.82,0.5 103.82,19.47 89.293,4.942 
	82.929,11.307 102.021,30.399 103.82,32.198 103.82,55.091 76.534,27.805 70.17,34.169 101.99,65.988 103.82,67.818 103.82,100.624 
	75.418,84.226 74.758,81.763 63.112,38.296 54.418,40.626 64.396,77.862 44.624,66.446 43.953,63.941 36.964,37.86 28.271,40.19 
	33.601,60.082 17.111,50.562 12.611,58.356 29.154,67.907 9.18,73.259 11.508,81.952 37.589,74.964 40.177,74.271 60.002,85.718 
	22.599,95.739 24.928,104.433 68.395,92.784 71.024,92.081 99.463,108.5 70.969,124.951 68.377,124.257 24.91,112.609 
	22.581,121.302 59.946,131.316 40.174,142.73 37.54,142.025 11.46,135.037 9.131,143.73 29.152,149.095 12.611,158.644 
	17.111,166.439 33.54,156.953 28.223,176.798 36.916,179.126 43.904,153.046 44.563,150.589 64.388,139.142 54.401,176.416 
	63.094,178.746 74.741,135.279 75.411,132.779 103.82,116.376 103.82,149.173 102.018,150.976 70.198,182.794 76.562,189.16 
	103.82,161.9 103.82,184.73 101.987,186.564 82.895,205.658 89.259,212.021 103.82,197.458 103.82,216.5 112.82,216.5 
	112.82,197.398 127.442,212.021 133.807,205.658 114.715,186.564 112.82,184.669 112.82,161.777 140.201,189.16 146.565,182.794 
	114.745,150.976 112.82,149.05 112.82,116.212 141.314,132.664 142.009,135.255 153.656,178.722 162.349,176.392 152.337,139.027 
	172.109,150.443 172.814,153.078 179.803,179.158 188.496,176.828 183.132,156.806 199.673,166.355 204.173,158.562 
	187.743,149.078 "/>
<g>
</g>
</svg>
