<?xml version="1.0" encoding="utf-8"?>
<!-- Generator: Adobe Illustrator 16.0.0, SVG Export Plug-In . SVG Version: 6.00 Build 0)  -->
<!DOCTYPE svg PUBLIC "-//W3C//DTD SVG 1.1//EN" "http://www.w3.org/Graphics/SVG/1.1/DTD/svg11.dtd">
<svg version="1.1" id="Layer_1" xmlns="http://www.w3.org/2000/svg" xmlns:xlink="http://www.w3.org/1999/xlink" x="0px" y="0px"
	 width="257.76px" height="257.76px" viewBox="0 0 257.76 257.76" enable-background="new 0 0 257.76 257.76" xml:space="preserve">
<path fill="#FFFFFF" d="M238.744,188.187l-28.713-16.579l26.77-7.172c1.903-0.51,3.034-2.468,2.524-4.374
	c-0.51-1.904-2.469-3.034-4.374-2.524l-33.667,9.022l-33.554-19.372l54.862-14.701c1.566-0.42,2.591-1.821,2.631-3.363
	c0.183-1.718-0.893-3.364-2.615-3.824l-54.883-14.707l33.553-19.373l33.688,9.026c1.905,0.511,3.861-0.619,4.374-2.524
	c0.512-1.904-0.62-3.862-2.524-4.373l-26.792-7.178l17.149-9.902l-0.008-0.012l11.578-6.684c1.786-1.033,2.437-3.253,1.451-4.96
	c-0.986-1.708-3.233-2.256-5.021-1.225l-28.714,16.579l7.173-26.769c0.51-1.905-0.62-3.862-2.524-4.374
	c-1.905-0.509-3.863,0.621-4.374,2.525l-9.021,33.666l-33.554,19.373l14.701-54.863c0.417-1.564-0.28-3.152-1.597-3.957
	c-1.396-1.02-3.361-0.91-4.621,0.351l-40.177,40.177V47.352l24.661-24.662c1.396-1.395,1.396-3.655,0-5.049
	c-1.393-1.395-3.655-1.395-5.049,0l-19.611,19.612V17.45h-0.016V4.082c0-2.063-1.598-3.736-3.57-3.736s-3.571,1.673-3.571,3.736
	v33.155l-19.597-19.596c-1.395-1.395-3.654-1.395-5.049,0c-1.394,1.394-1.394,3.655,0,5.049l24.646,24.647v38.744L85.148,45.918
	c-1.148-1.146-2.874-1.334-4.228-0.595c-1.581,0.7-2.466,2.454-2.005,4.175l14.705,54.883L60.067,85.011L51.04,51.323
	c-0.509-1.904-2.467-3.035-4.373-2.525c-1.904,0.51-3.035,2.468-2.525,4.373l7.179,26.79l-17.15-9.901l-0.008,0.014l-11.577-6.685
	c-1.787-1.031-4.036-0.483-5.021,1.225c-0.986,1.707-0.336,3.928,1.45,4.96L47.73,86.15l-26.769,7.172
	c-1.904,0.512-3.034,2.468-2.525,4.374c0.511,1.905,2.468,3.036,4.373,2.525L56.477,91.2l33.553,19.373l-54.863,14.699
	c-1.565,0.42-2.59,1.821-2.629,3.362c-0.184,1.718,0.894,3.364,2.614,3.826l54.883,14.706l-33.554,19.372l-33.688-9.027
	c-1.905-0.51-3.863,0.62-4.374,2.525c-0.511,1.904,0.621,3.862,2.525,4.373l26.79,7.179l-17.149,9.902l0.007,0.014l-11.577,6.684
	c-1.787,1.032-2.437,3.252-1.45,4.96c0.984,1.707,3.234,2.255,5.021,1.223l28.714-16.578l-7.173,26.77
	c-0.509,1.905,0.621,3.863,2.525,4.374c1.904,0.51,3.862-0.621,4.373-2.526l9.021-33.667L93.6,153.371l-14.7,54.862
	c-0.419,1.568,0.281,3.155,1.598,3.959c1.396,1.019,3.359,0.909,4.619-0.351l40.179-40.178v38.746l-24.661,24.66
	c-1.395,1.393-1.395,3.654,0,5.049c1.392,1.395,3.654,1.395,5.048,0l19.613-19.612l0,19.803l0.014,0.001v13.366
	c0,2.065,1.599,3.737,3.571,3.737c1.972,0,3.57-1.672,3.57-3.737v-33.155l19.597,19.596c1.395,1.395,3.655,1.395,5.049,0
	c1.395-1.395,1.395-3.656,0-5.049l-24.646-24.647V171.68l40.163,40.162c1.146,1.145,2.871,1.333,4.225,0.597
	c1.581-0.701,2.467-2.457,2.006-4.177l-14.705-54.884l33.553,19.372l9.026,33.688c0.511,1.905,2.467,3.036,4.373,2.525
	c1.904-0.508,3.035-2.468,2.525-4.372l-7.179-26.79l17.149,9.901l0.009-0.014l11.577,6.684c1.788,1.032,4.035,0.484,5.021-1.223
	C241.18,191.439,240.53,189.219,238.744,188.187z M49.337,128.868l49.439-13.247l22.948,13.25l-22.942,13.247L49.337,128.868z
	 M125.29,161.569l-36.19,36.19l13.25-49.44l22.94-13.25V161.569z M125.309,122.677l-22.942-13.245L89.118,59.988l36.191,36.191
	V122.677z M132.47,96.199l36.19-36.2l-13.25,49.44l-22.94,13.25V96.199z M168.64,197.769l-36.19-36.19v-26.5l22.94,13.25
	L168.64,197.769z M158.99,142.139l-22.95-13.25l22.94-13.25l49.44,13.25L158.99,142.139z"/>
<g>
</g>
</svg>
