<?xml version="1.0" encoding="utf-8"?>
<!-- Generator: Adobe Illustrator 16.0.0, SVG Export Plug-In . SVG Version: 6.00 Build 0)  -->
<!DOCTYPE svg PUBLIC "-//W3C//DTD SVG 1.1//EN" "http://www.w3.org/Graphics/SVG/1.1/DTD/svg11.dtd">
<svg version="1.1" id="Layer_1" xmlns="http://www.w3.org/2000/svg" xmlns:xlink="http://www.w3.org/1999/xlink" x="0px" y="0px"
	 width="257.04px" height="256.761px" viewBox="0 0 257.04 256.761" enable-background="new 0 0 257.04 256.761"
	 xml:space="preserve">
<path fill="#FFFFFF" d="M238.138,188.102l-10.663-6.157l7.988-2.14c1.647-0.441,2.625-2.134,2.185-3.783
	c-0.443-1.648-2.137-2.625-3.785-2.183l-13.955,3.737l-21.323-12.311l23.178-6.211c1.646-0.44,2.625-2.136,2.185-3.783
	c-0.44-1.646-2.134-2.625-3.783-2.185l-29.146,7.811l-29.025-16.76l47.478-12.722c1.329-0.356,2.206-1.523,2.273-2.823
	c0.005-0.068,0.005-0.354-0.001-0.429c-0.069-1.297-0.947-2.463-2.272-2.816l-47.478-12.722l29.024-16.76l29.146,7.81
	c1.649,0.442,3.343-0.536,3.782-2.184c0.441-1.647-0.538-3.342-2.184-3.783l-23.178-6.211l21.323-12.31l13.955,3.739
	c1.648,0.441,3.342-0.537,3.785-2.184c0.44-1.649-0.536-3.342-2.185-3.784l-7.989-2.141l10.664-6.156
	c1.477-0.852,1.983-2.742,1.131-4.22c-0.853-1.477-2.743-1.982-4.221-1.13l-10.662,6.156l2.141-7.986
	c0.44-1.648-0.538-3.342-2.184-3.784c-1.648-0.442-3.343,0.537-3.783,2.185l-3.739,13.953l-21.325,12.311l6.21-23.176
	c0.441-1.648-0.535-3.341-2.184-3.784c-1.647-0.441-3.341,0.536-3.784,2.185l-7.809,29.145l-29.026,16.759l12.721-47.481
	c0.354-1.326-0.217-2.669-1.307-3.378c-0.058-0.041-0.305-0.183-0.375-0.215c-1.159-0.586-2.605-0.409-3.574,0.559l-34.759,34.76
	v-33.52l21.335-21.335c1.207-1.207,1.207-3.162,0-4.37c-1.203-1.206-3.161-1.206-4.368,0l-16.967,16.969V24.637l10.218-10.216
	c1.204-1.206,1.204-3.162,0-4.368c-1.209-1.206-3.164-1.206-4.37,0l-5.848,5.848V3.589c0-1.706-1.383-3.089-3.089-3.089
	s-3.088,1.383-3.088,3.089v12.312l-5.847-5.848c-1.207-1.206-3.164-1.206-4.369,0c-1.207,1.206-1.207,3.162,0,4.368l10.216,10.216
	v24.624l-16.968-16.969c-1.205-1.205-3.16-1.205-4.368,0c-1.205,1.208-1.205,3.163,0,4.37l21.336,21.335v33.52l-34.76-34.76
	c-0.971-0.969-2.419-1.146-3.578-0.556c-0.064,0.03-0.312,0.173-0.372,0.215c-1.089,0.71-1.658,2.053-1.306,3.376l12.724,47.481
	L69.11,90.514l-7.81-29.144c-0.438-1.648-2.134-2.627-3.78-2.185c-1.648,0.441-2.628,2.135-2.187,3.783l6.21,23.176L40.222,73.833
	L36.483,59.88c-0.444-1.648-2.138-2.626-3.786-2.185c-1.647,0.442-2.625,2.136-2.184,3.784l2.14,7.986l-10.662-6.156
	c-1.478-0.852-3.365-0.346-4.22,1.131c-0.853,1.478-0.347,3.368,1.132,4.22l10.662,6.157l-7.988,2.14
	c-1.646,0.442-2.623,2.135-2.184,3.783c0.441,1.647,2.135,2.625,3.784,2.184l13.955-3.739l21.324,12.31l-23.179,6.211
	c-1.648,0.442-2.625,2.136-2.183,3.784c0.44,1.648,2.134,2.626,3.782,2.185l29.143-7.811l29.03,16.761l-47.482,12.722
	c-1.324,0.355-2.2,1.522-2.271,2.821c-0.006,0.072-0.006,0.357,0,0.43c0.072,1.297,0.95,2.463,2.271,2.817l47.482,12.723
	l-29.03,16.759l-29.143-7.81c-1.648-0.44-3.342,0.537-3.782,2.184c-0.443,1.647,0.535,3.342,2.183,3.783l23.179,6.211
	l-21.324,12.312l-13.955-3.738c-1.648-0.442-3.343,0.536-3.784,2.183c-0.439,1.649,0.537,3.342,2.184,3.783l7.988,2.141
	l-10.662,6.156c-1.479,0.853-1.984,2.741-1.132,4.219c0.854,1.476,2.742,1.983,4.22,1.13l10.663-6.156l-2.14,7.988
	c-0.441,1.648,0.535,3.341,2.183,3.783c1.648,0.441,3.342-0.537,3.786-2.185l3.738-13.954l21.322-12.312l-6.21,23.178
	c-0.44,1.646,0.538,3.341,2.188,3.783c1.646,0.44,3.341-0.538,3.78-2.186l7.809-29.143l29.029-16.76l-12.724,47.48
	c-0.353,1.326,0.218,2.667,1.308,3.378c0.061,0.041,0.306,0.184,0.373,0.214c1.158,0.589,2.606,0.412,3.576-0.558l34.759-34.758
	v33.517L104.098,220.1c-1.206,1.207-1.206,3.163,0,4.368c1.206,1.206,3.163,1.206,4.366,0l16.968-16.967v24.622l-10.216,10.214
	c-1.207,1.209-1.207,3.164,0.001,4.372c1.206,1.204,3.161,1.204,4.368,0l5.847-5.847v12.31c0,1.707,1.382,3.09,3.089,3.09
	c1.705,0,3.089-1.383,3.089-3.09v-12.31l5.848,5.847c1.207,1.204,3.16,1.204,4.369,0c1.205-1.208,1.205-3.163,0-4.372
	l-10.217-10.214V207.5l16.968,16.967c1.206,1.206,3.162,1.206,4.367,0c1.206-1.205,1.207-3.161-0.001-4.368l-21.334-21.336v-33.519
	l34.758,34.758c0.972,0.97,2.42,1.146,3.581,0.557c0.064-0.03,0.311-0.173,0.371-0.215c1.087-0.71,1.658-2.052,1.304-3.377
	l-12.721-47.481l29.025,16.761l7.811,29.143c0.442,1.648,2.136,2.626,3.784,2.185c1.647-0.44,2.626-2.136,2.183-3.782l-6.209-23.178
	l21.324,12.312l3.739,13.954c0.441,1.646,2.135,2.625,3.781,2.185c1.648-0.441,2.628-2.135,2.186-3.783l-2.141-7.989l10.662,6.157
	c1.478,0.853,3.367,0.345,4.221-1.13C240.121,190.843,239.614,188.955,238.138,188.102z M60.114,128.38l42.504-11.388l19.724,11.388
	l-19.724,11.389L60.114,128.38z M125.432,156.506l-31.113,31.115l11.388-42.502l19.726-11.388V156.506z M125.432,123.03
	l-19.726-11.388L94.317,69.14l31.114,31.113V123.03z M131.608,123.03v-22.777l31.112-31.113l-11.386,42.501L131.608,123.03z
	 M162.721,187.62l-31.111-31.113V133.73l19.724,11.389L162.721,187.62z M154.425,139.769l-19.728-11.389l19.728-11.387
	l42.498,11.387L154.425,139.769z"/>
<g>
</g>
</svg>
