<?xml version="1.0" encoding="utf-8"?>
<!-- Generator: Adobe Illustrator 16.0.0, SVG Export Plug-In . SVG Version: 6.00 Build 0)  -->
<!DOCTYPE svg PUBLIC "-//W3C//DTD SVG 1.1//EN" "http://www.w3.org/Graphics/SVG/1.1/DTD/svg11.dtd">
<svg version="1.1" id="Layer_1" xmlns="http://www.w3.org/2000/svg" xmlns:xlink="http://www.w3.org/1999/xlink" x="0px" y="0px"
	 width="216.72px" height="216.72px" viewBox="0 0 216.72 216.72" enable-background="new 0 0 216.72 216.72" xml:space="preserve">
<polygon fill="#FFFFFF" points="205.496,135.037 179.416,142.024 176.88,142.703 156.748,131.08 176.658,125.744 174.33,117.051 
	148.25,124.039 145.726,124.715 117.398,108.361 145.738,92 148.259,92.675 174.341,99.664 176.669,90.97 156.759,85.634 
	176.906,74.003 179.419,74.677 205.5,81.666 207.828,72.971 187.927,67.64 204.154,58.272 199.654,50.478 183.386,59.87 
	188.738,39.904 180.044,37.574 173.054,63.654 172.365,66.234 152.23,77.857 157.578,57.902 148.884,55.572 141.896,81.654 
	141.207,84.22 112.847,100.595 112.847,67.861 114.728,65.98 133.82,46.888 127.457,40.523 112.847,55.132 112.847,31.869 
	114.72,29.996 133.812,10.904 127.449,4.541 112.847,19.141 112.847,0.36 103.847,0.36 103.847,19.124 89.265,4.541 82.9,10.904 
	101.992,29.996 103.847,31.851 103.847,55.099 89.273,40.523 82.908,46.888 102,65.98 103.847,67.827 103.847,100.537 
	75.509,84.175 74.833,81.652 67.843,55.572 59.15,57.902 64.486,77.812 44.339,66.179 43.666,63.667 36.677,37.587 27.984,39.916 
	33.317,59.816 17.091,50.449 12.591,58.243 28.859,67.634 8.892,72.984 11.222,81.677 37.302,74.69 39.881,74 60.015,85.623 
	40.058,90.969 42.388,99.663 68.468,92.675 71.037,91.986 99.398,108.361 71.048,124.728 68.48,124.039 42.4,117.051 40.07,125.746 
	60.026,131.091 39.88,142.723 37.322,142.038 11.242,135.05 8.912,143.744 28.857,149.087 12.591,158.478 17.091,166.272 
	33.341,156.89 28.003,176.811 36.697,179.14 43.685,153.061 44.365,150.527 64.498,138.902 59.162,158.812 67.855,161.142 
	74.843,135.062 75.52,132.539 103.847,116.183 103.847,148.906 102,150.753 82.908,169.845 89.273,176.209 103.847,161.634 
	103.847,184.898 102.007,186.737 82.916,205.83 89.281,212.193 103.847,197.625 103.847,216.36 112.847,216.36 112.847,197.576 
	127.464,212.193 133.828,205.83 114.736,186.737 112.847,184.849 112.847,161.601 127.457,176.209 133.82,169.845 114.728,150.753 
	112.847,148.873 112.847,116.125 141.197,132.493 141.884,135.062 148.873,161.142 157.566,158.812 152.218,138.857 
	172.365,150.488 173.05,153.046 180.039,179.126 188.734,176.796 183.388,156.853 199.654,166.244 204.154,158.449 187.904,149.067 
	207.824,143.73 "/>
<g>
</g>
</svg>
