<?xml version="1.0" encoding="utf-8"?>
<!-- Generator: Adobe Illustrator 16.0.0, SVG Export Plug-In . SVG Version: 6.00 Build 0)  -->
<!DOCTYPE svg PUBLIC "-//W3C//DTD SVG 1.1//EN" "http://www.w3.org/Graphics/SVG/1.1/DTD/svg11.dtd">
<svg version="1.1" id="Layer_1" xmlns="http://www.w3.org/2000/svg" xmlns:xlink="http://www.w3.org/1999/xlink" x="0px" y="0px"
	 width="224.963px" height="224.64px" viewBox="0 0 224.963 224.64" enable-background="new 0 0 224.963 224.64"
	 xml:space="preserve">
<path fill="#FFFFFF" d="M224.012,135.143l-7.794-4.5l-29.39,19.404l-11.691-6.75l29.39-19.404l-7.794-4.5l-29.39,19.404
	l-10.774-6.22l32.413-20.259l-32.413-20.257l10.772-6.22l29.391,19.405l7.794-4.5l-29.391-19.405l11.691-6.75l29.391,19.405
	l7.795-4.5l-29.391-19.405l13.641-7.875l-4.5-7.794l-13.64,7.875l-2.11-35.154l-7.794,4.5l2.11,35.154l-11.691,6.75l-2.11-35.154
	l-7.794,4.5l2.11,35.154l-10.773,6.22l-1.337-38.198l-33.75,17.941V51.57l31.5-15.75v-9l-31.5,15.75v-13.5l31.5-15.75v-9
	l-31.5,15.75V4.32h-9v15.75l-31.5-15.75v9l31.5,15.75v13.5l-31.5-15.75v9l31.5,15.75v12.44l-33.75-17.941l-1.338,38.199
	l-10.773-6.22l2.11-35.155l-7.794-4.5l-2.11,35.155l-11.691-6.75l2.11-35.155l-7.794-4.5l-2.11,35.155l-13.64-7.875l-4.5,7.794
	l13.64,7.875L0.951,89.497l7.794,4.5l29.39-19.405l11.691,6.75l-29.39,19.405l7.794,4.5l29.39-19.405l10.773,6.22l-32.412,20.257
	l32.412,20.258l-10.774,6.221L28.23,119.393l-7.794,4.5l29.389,19.404l-11.691,6.75L8.745,130.643l-7.794,4.5l29.389,19.404
	l-13.639,7.875l4.5,7.794l13.64-7.875l2.11,35.155l7.794-4.5l-2.11-35.155l11.691-6.75l2.11,35.155l7.794-4.5l-2.11-35.155
	l10.774-6.221l1.337,38.2l33.75-17.941v12.44l-31.5,15.75v9l31.5-15.75l0,13.5l-31.5,15.75v9l31.5-15.75v15.75h9v-15.75l31.5,15.75
	v-9l-31.5-15.75l0-13.5l31.5,15.75v-9l-31.5-15.75v-12.44l33.75,17.94l1.337-38.198l10.774,6.22l-2.11,35.155l7.794,4.5l2.11-35.155
	l11.691,6.75l-2.11,35.155l7.794,4.5l2.11-35.155l13.639,7.875l4.5-7.794l-13.64-7.875L224.012,135.143z M107.981,73.509l0,31.016
	l-26.86-15.508L80.981,57.76L107.981,73.509z M49.481,112.319l27.139-15.507l26.861,15.507l-26.861,15.509L49.481,112.319z
	 M80.981,166.879l0.139-31.258l26.861-15.509v31.018L80.981,166.879z M116.981,73.51l27-15.75l-0.14,31.257l-26.861,15.508V73.51z
	 M116.981,151.129v-31.016l26.861,15.508l0.139,31.258L116.981,151.129z M148.342,127.828l-26.861-15.509l26.861-15.508
	l27.14,15.508L148.342,127.828z"/>
<g>
</g>
</svg>
